<svg xmlns="http://www.w3.org/2000/svg" version="1.1" xmlns:xlink="http://www.w3.org/1999/xlink" xmlns:svgjs="http://svgjs.dev/svgjs" width="100%" height="100%" viewBox="0 0 1000 600"><rect width="1000" height="600" x="0" y="0" fill="#f4efea"/><g><circle r="166.66666666666666" cx="261.4612681070963" cy="283.6834779550296" fill="#7d141d" transform="matrix(1.318640563993558,0,0,1.318640563993558,0,-74.07655612271455)"/><path d="M266.056506291181 358.6834887977666Q257.64581258931935 358.6834887977666 249.51361867890998 354.9515915923048Q241.40927474764592 351.24754436598823 235.39367925227467 346.8472476610408L235.39367925227467 346.8472476610408Q226.95513557126773 340.41390247849097 225.36768675998925 340.41390247849097L225.36768675998925 340.41390247849097Q221.35728976307507 340.41390247849097 220.1318906806846 349.0473960135146L220.1318906806846 349.0473960135146L219.35209126461797 357.0681900073429L214.72899472650857 357.0681900073429L213.3364957692467 293.7094874519279L218.12669218222754 293.7094874519279Q219.35209126461797 308.5535263363395 226.45383594665347 322.0886162009248Q233.58343060783423 335.6237060655101 244.19427266216965 343.9229998507908Q254.8329646956503 352.25014361521676 266.056506291181 352.25014361521676L266.056506291181 352.25014361521676Q282.5158439660162 352.25014361521676 290.03533833523034 344.22934962138845Q297.5548327044444 336.20855562756014 297.5548327044444 324.9850140320294L297.5548327044444 324.9850140320294Q297.5548327044444 315.1539713937607 291.81773700052554 309.556125585568Q286.1084912757518 303.9304297982301 275.0798995342378 299.53013309328253L275.0798995342378 299.53013309328253L244.61202234934822 287.27614226937817Q228.76538421570817 280.87064706597357 221.2458898464941 270.7332546571072Q213.72639547728002 260.623712227386 213.72639547728002 246.3923728841697L213.72639547728002 246.3923728841697Q213.72639547728002 227.1201873156655 224.94993707281068 217.90184421859192Q236.1734786683413 208.68350112151836 253.02271605120987 208.68350112151836L253.02271605120987 208.68350112151836Q266.2514561451976 208.68350112151836 282.29304413285433 220.7146921122609L282.29304413285433 220.7146921122609Q284.2982426313114 222.10719106952277 286.30344112976854 223.22119023533224Q288.3086396282256 224.33518940114175 289.9239384186494 224.33518940114175L289.9239384186494 224.33518940114175Q293.3216358743683 224.33518940114175 293.9343354155635 219.51714300901568L293.9343354155635 219.51714300901568L294.7419848107754 212.30399841039923L299.5600312029014 212.30399841039923L301.5652297013586 264.4391593702835L296.74718330923247 264.4391593702835Q293.54443570753017 249.98502019390534 286.6097909003661 238.76147859837468Q279.7029960723472 227.53793700284405 270.48465297527366 221.32739165345612Q261.2384598990549 215.08899632492296 251.4352672399314 215.08899632492296L251.4352672399314 215.08899632492296Q240.1838756652555 215.08899632492296 232.97073106663905 222.41354084012036Q225.75758646802254 229.7380853553178 225.75758646802254 242.77187559528883L225.75758646802254 242.77187559528883Q225.75758646802254 251.79526883834578 230.38068300613193 256.8082650844884Q234.9759295650961 261.82126133063116 243.99932280815298 265.44175861951203L243.99932280815298 265.44175861951203L282.7107938200329 280.87064706597357Q296.1344837680373 286.27354302014953 302.8463287420394 296.299535512435Q309.5860236951869 306.32552800472047 309.5860236951869 317.35411974623446L309.5860236951869 317.35411974623446Q309.5860236951869 327.9928117797151 304.8515272404966 337.4061047308053Q300.1448807649515 346.8472476610408 290.4252380432637 352.75144323983113Q280.70559532157574 358.6834887977666 266.056506291181 358.6834887977666L266.056506291181 358.6834887977666Z " fill="#f4efea" transform="matrix(1.318640563993558,0,0,1.318640563993558,0,-74.07655612271455)"/><path d="M581.1082277749938 358.6834769323368L541.5073089102043 227.33275476743916L540.2697801956797 227.33275476743916L540.2697801956797 333.0119510403367Q540.2697801956797 340.6673612278614 543.8960271266124 345.1282205476597Q547.5222740575452 349.5890798674578 553.3357810420564 349.5890798674578L553.3357810420564 349.5890798674578L560.7897330667515 349.5890798674578L560.7897330667515 356.2084195032875L511.4612629110472 356.2084195032875L511.4612629110472 349.5890798674578L518.9439946732894 349.5890798674578Q524.7287219202535 349.5890798674578 528.3549688511864 345.1282205476597Q531.9812157821191 340.6673612278614 531.9812157821191 333.0119510403367L531.9812157821191 333.0119510403367L531.9812157821191 220.88609355689204Q531.9812157821191 218.00811980218347 530.6285681174061 216.65547213747047Q529.3047001902402 215.30282447275746 526.3979466979845 215.30282447275746L526.3979466979845 215.30282447275746L511.4612629110472 215.30282447275746L511.4612629110472 208.68348483692785L555.4079221454466 208.68348483692785L589.1665542881777 322.8527036862155L620.6803669022362 208.68348483692785L663.5621758473934 208.68348483692785L663.5621758473934 215.30282447275746L648.6542717980032 215.30282447275746Q645.7475183057476 215.30282447275746 644.3948706410346 216.65547213747047Q643.0422229763216 218.00811980218347 643.0422229763216 220.88609355689204L643.0422229763216 220.88609355689204L643.0422229763216 343.97703104577624Q643.0422229763216 349.5890798674578 648.6542717980032 349.5890798674578L648.6542717980032 349.5890798674578L663.5621758473934 349.5890798674578L663.5621758473934 356.2084195032875L603.4700838490792 356.2084195032875L603.4700838490792 349.5890798674578L618.4067676360165 349.5890798674578Q623.9900367201511 349.5890798674578 623.9900367201511 343.97703104577624L623.9900367201511 343.97703104577624L623.9900367201511 221.72070594575752L586.0583426330925 358.6834769323368L581.1082277749938 358.6834769323368Z " fill="#7d141d" transform="matrix(1.318640563993558,0,0,1.318640563993558,0,-74.07655612271455)"/></g></svg>